nColumns=19																		
nRows=27																		
DataType=double																		
version=3																		
OpenSimVersion=4.4-2022-07-23-0e9fedc																		
endheader																		
time	ground_force_1_vx	ground_force_1_vy	ground_force_1_vz	ground_force_1_px	ground_force_1_py	ground_force_1_pz	ground_moment_1_mx	ground_moment_1_my	ground_moment_1_mz	ground_force_2_vx	ground_force_2_vy	ground_force_2_vz	ground_force_2_px	ground_force_2_py	ground_force_2_pz	ground_moment_2_mx	ground_moment_2_my	ground_moment_2_mz
    2.00000000000000	  -39.55190127000000	  622.13759500000003	   48.02234916000000	    0.83259012216261	    0.00000000000000	    0.38941677540320	    0.00000000000000	    3.27381935535273	    0.00000000000000	    0.00000000000000	    0.00000000000000	    0.00000000000000	                 NaN	    0.00000000000000	                 NaN	    0.00000000000000	                 NaN	    0.00000000000000
    2.00500000000000	  -37.48554071000000	  618.45347679999998	   47.01147431000000	    0.82835358019596	    0.00000000000000	    0.38972700757057	    0.00000000000000	    3.19693931400211	    0.00000000000000	    0.00000000000000	    0.00000000000000	    0.00000000000000	                 NaN	    0.00000000000000	                 NaN	    0.00000000000000	                 NaN	    0.00000000000000
    2.01000000000000	  -35.20870580000000	  615.74894949999998	   45.88183540000000	    0.82378188307782	    0.00000000000000	    0.39009494271041	    0.00000000000000	    3.09004039879744	    0.00000000000000	    0.00000000000000	    0.00000000000000	    0.00000000000000	                 NaN	    0.00000000000000	                 NaN	    0.00000000000000	                 NaN	    0.00000000000000
    2.01500000000000	  -32.70222850000000	  613.90398900000002	   44.67893990000000	    0.81891758214427	    0.00000000000000	    0.39051459488464	    0.00000000000000	    2.96033711151942	    0.00000000000000	    0.00000000000000	    0.00000000000000	    0.00000000000000	                 NaN	    0.00000000000000	                 NaN	    0.00000000000000	                 NaN	    0.00000000000000
    2.02000000000000	  -30.25170357000000	  612.84159820000002	   43.51960041000000	    0.81392951459260	    0.00000000000000	    0.39095678512823	    0.00000000000000	    2.82954464298875	    0.00000000000000	    0.00000000000000	    0.00000000000000	    0.00000000000000	                 NaN	    0.00000000000000	                 NaN	    0.00000000000000	                 NaN	    0.00000000000000
    2.02500000000000	  -27.92237168000000	  612.43671359999996	   42.46482222000000	    0.80896088626624	    0.00000000000000	    0.39141408898671	    0.00000000000000	    2.72067950794914	    0.00000000000000	    0.00000000000000	    0.00000000000000	    0.00000000000000	                 NaN	    0.00000000000000	                 NaN	    0.00000000000000	                 NaN	    0.00000000000000
    2.03000000000000	  -25.50765003000000	  612.54503799999998	   41.43000396000000	    0.80395768737776	    0.00000000000000	    0.39187940476109	    0.00000000000000	    2.61195420487153	    0.00000000000000	    0.00000000000000	    0.00000000000000	    0.00000000000000	                 NaN	    0.00000000000000	                 NaN	    0.00000000000000	                 NaN	    0.00000000000000
    2.03500000000000	  -22.95962670000000	  613.01626169999997	   40.35312803000000	    0.79873144424772	    0.00000000000000	    0.39237145944496	    0.00000000000000	    2.47698386470347	    0.00000000000000	    0.00000000000000	    0.00000000000000	    0.00000000000000	                 NaN	    0.00000000000000	                 NaN	    0.00000000000000	                 NaN	    0.00000000000000
    2.04000000000000	  -20.43330123000000	  613.79971209999997	   39.27328347000000	    0.79330840092576	    0.00000000000000	    0.39286615979069	    0.00000000000000	    2.33969720898015	    0.00000000000000	    0.00000000000000	    0.00000000000000	    0.00000000000000	                 NaN	    0.00000000000000	                 NaN	    0.00000000000000	                 NaN	    0.00000000000000
    2.04500000000000	  -17.97357277000000	  614.86816820000001	   38.32940504000000	    0.78803689460709	    0.00000000000000	    0.39333120358973	    0.00000000000000	    2.22156468968282	    0.00000000000000	    0.00000000000000	    0.00000000000000	    0.00000000000000	                 NaN	    0.00000000000000	                 NaN	    0.00000000000000	                 NaN	    0.00000000000000
    2.05000000000000	  -15.52918087000000	  616.22760349999999	   37.61018558000000	    0.78304246759193	    0.00000000000000	    0.39375023862526	    0.00000000000000	    2.11174569872693	    0.00000000000000	    0.00000000000000	    0.00000000000000	    0.00000000000000	                 NaN	    0.00000000000000	                 NaN	    0.00000000000000	                 NaN	    0.00000000000000
    2.05500000000000	  -13.08161361000000	  617.89257329999998	   37.02503551000000	    0.77804775497052	    0.00000000000000	    0.39411969582137	    0.00000000000000	    2.02509509211504	    0.00000000000000	    0.00000000000000	    0.00000000000000	    0.00000000000000	                 NaN	    0.00000000000000	                 NaN	    0.00000000000000	                 NaN	    0.00000000000000
    2.06000000000000	  -10.56697777000000	  619.78655779999997	   36.43277627000000	    0.77288367970365	    0.00000000000000	    0.39447111091327	    0.00000000000000	    1.96601279213502	    0.00000000000000	    0.00000000000000	    0.00000000000000	    0.00000000000000	                 NaN	    0.00000000000000	                 NaN	    0.00000000000000	                 NaN	    0.00000000000000
    2.06500000000000	   -7.90427554800000	  621.82365960000004	   35.77595995000000	    0.76772635035684	    0.00000000000000	    0.39480018866969	    0.00000000000000	    1.90964798664672	    0.00000000000000	    0.00000000000000	    0.00000000000000	    0.00000000000000	                 NaN	    0.00000000000000	                 NaN	    0.00000000000000	                 NaN	    0.00000000000000
    2.07000000000000	   -5.18129461400000	  623.93485020000003	   35.18374094000000	    0.76268401433153	    0.00000000000000	    0.39509844256864	    0.00000000000000	    1.87659961322222	    0.00000000000000	    0.00000000000000	    0.00000000000000	    0.00000000000000	                 NaN	    0.00000000000000	                 NaN	    0.00000000000000	                 NaN	    0.00000000000000
    2.07500000000000	   -2.50802702800000	  626.05853279999997	   34.77130786000000	    0.75763802553243	    0.00000000000000	    0.39537316009006	    0.00000000000000	    1.85713082803338	    0.00000000000000	    0.00000000000000	    0.00000000000000	    0.00000000000000	                 NaN	    0.00000000000000	                 NaN	    0.00000000000000	                 NaN	    0.00000000000000
    2.08000000000000	    0.23423790200000	  628.07323129999997	   34.47688049000000	    0.75250332878535	    0.00000000000000	    0.39566384569156	    0.00000000000000	    1.81777633226479	    0.00000000000000	    0.00000000000000	    0.00000000000000	    0.00000000000000	                 NaN	    0.00000000000000	                 NaN	    0.00000000000000	                 NaN	    0.00000000000000
    2.08500000000000	    3.18227407300000	  629.89381930000002	   34.16112940000000	    0.74731071442253	    0.00000000000000	    0.39599895939617	    0.00000000000000	    1.75780385464993	    0.00000000000000	    0.00000000000000	    0.00000000000000	    0.00000000000000	                 NaN	    0.00000000000000	                 NaN	    0.00000000000000	                 NaN	    0.00000000000000
    2.09000000000000	    6.22395498300000	  631.57486240000003	   33.80992321000000	    0.74208034820380	    0.00000000000000	    0.39635579843154	    0.00000000000000	    1.67915879945048	    0.00000000000000	    0.00000000000000	    0.00000000000000	    0.00000000000000	                 NaN	    0.00000000000000	                 NaN	    0.00000000000000	                 NaN	    0.00000000000000
    2.09500000000000	    9.23846458500000	  633.17394390000004	   33.56931778000000	    0.73687687959621	    0.00000000000000	    0.39671837940620	    0.00000000000000	    1.58804445814132	    0.00000000000000	    0.00000000000000	    0.00000000000000	    0.00000000000000	                 NaN	    0.00000000000000	                 NaN	    0.00000000000000	                 NaN	    0.00000000000000
    2.10000000000000	   12.31535241000000	  634.72104000000002	   33.51762885000000	    0.73175876237851	    0.00000000000000	    0.39708308395449	    0.00000000000000	    1.46975605325507	    0.00000000000000	    0.00000000000000	    0.00000000000000	    0.00000000000000	                 NaN	    0.00000000000000	                 NaN	    0.00000000000000	                 NaN	    0.00000000000000
    2.10500000000000	   15.53926577000000	  636.23981939999999	   33.58773218000000	    0.72660960858804	    0.00000000000000	    0.39747161476866	    0.00000000000000	    1.31426968328845	    0.00000000000000	    0.00000000000000	    0.00000000000000	    0.00000000000000	                 NaN	    0.00000000000000	                 NaN	    0.00000000000000	                 NaN	    0.00000000000000
    2.11000000000000	   18.85389797000000	  637.85782910000000	   33.63206221000000	    0.72127561634336	    0.00000000000000	    0.39787351283067	    0.00000000000000	    1.15961825431910	    0.00000000000000	    0.00000000000000	    0.00000000000000	    0.00000000000000	                 NaN	    0.00000000000000	                 NaN	    0.00000000000000	                 NaN	    0.00000000000000
    2.11500000000000	   22.22868984000000	  639.71410760000003	   33.60356005000000	    0.71580152271358	    0.00000000000000	    0.39826753977961	    0.00000000000000	    1.03109894116049	    0.00000000000000	    0.00000000000000	    0.00000000000000	    0.00000000000000	                 NaN	    0.00000000000000	                 NaN	    0.00000000000000	                 NaN	    0.00000000000000
    2.12000000000000	   25.69053951000000	  641.85987760000000	   33.60905581000000	    0.71031095190774	    0.00000000000000	    0.39865737158231	    0.00000000000000	    0.90059523053527	    0.00000000000000	    0.00000000000000	    0.00000000000000	    0.00000000000000	                 NaN	    0.00000000000000	                 NaN	    0.00000000000000	                 NaN	    0.00000000000000
    2.12500000000000	   29.19723306000000	  644.29991740000003	   33.74438455000000	    0.70475849932735	    0.00000000000000	    0.39904740804774	    0.00000000000000	    0.76835512995039	    0.00000000000000	    0.00000000000000	    0.00000000000000	    0.00000000000000	                 NaN	    0.00000000000000	                 NaN	    0.00000000000000	                 NaN	    0.00000000000000
    2.13000000000000	   32.71320688000000	  647.02399939999998	   34.00654774000000	    0.69903888272117	    0.00000000000000	    0.39945907152550	    0.00000000000000	    0.63349513091937	    0.00000000000000	    0.00000000000000	    0.00000000000000	    0.00000000000000	                 NaN	    0.00000000000000	                 NaN	    0.00000000000000	                 NaN	    0.00000000000000
